<svg width="347" height="52" viewBox="0 0 347 52" fill="none" xmlns="http://www.w3.org/2000/svg">
<path d="M116.049 21.4923L110.336 36.0611L104.636 21.4923H100.575V38.8257H103.144V23.6697L109.089 38.8257H111.584L117.529 23.6697V38.8257H120.098V21.4923H116.049Z" fill="black"/>
<path d="M65.1743 36.159C66.7278 36.8685 68.6116 37.37 70.5565 37.37C72.7094 37.37 74.8991 36.5138 74.8991 34.4342C74.8991 32.6972 73.1498 31.7431 70.9724 30.9235L69.4067 30.3119C67.3027 29.4801 65.2354 28.2324 65.2354 25.896C65.2354 22.5933 68.9663 21.2232 72.3302 21.2232C74.1162 21.2232 75.5841 21.4312 77.211 21.896L77.0153 23.792C75.6208 23.3027 74.055 22.9602 72.3914 22.9602C70.2507 22.9602 68.2568 23.8165 68.2568 25.6147C68.2568 27.0459 69.7003 27.8165 71.6575 28.5872L73.1865 29.1865C75.7431 30.1529 77.9816 31.4618 77.9816 34.0673C77.9816 37.419 74.74 39.1193 70.7278 39.1193C69.0397 39.1193 66.5565 38.7156 65.0153 38.1896L65.1743 36.159Z" fill="black"/>
<path d="M123.89 38.8257V21.4801H129.297C133.101 21.4801 136.563 22.5933 136.563 26.4709C136.563 30.4954 133.138 31.9021 129.101 31.9021H126.728V38.8257H123.89ZM126.716 30.1284H129.48C132.024 30.1284 133.578 28.7951 133.578 26.5076C133.578 24.2202 131.853 23.2538 129.48 23.2538H126.716V30.1284Z" fill="black"/>
<path d="M138.41 30.1774C138.41 25.3211 141.37 21.2232 147.217 21.2232C153.174 21.2232 156.024 25.1254 156.024 30.1774C156.024 35.2294 153.003 39.1315 147.217 39.1315C141.431 39.1315 138.41 35.0214 138.41 30.1774ZM147.217 37.2477C151.376 37.2477 153.015 33.3945 153.015 30.1651C153.015 26.9358 151.401 23.0826 147.217 23.0826C143.119 23.0826 141.419 27.0092 141.419 30.1651C141.407 33.3333 143.058 37.2477 147.217 37.2477Z" fill="black"/>
<path d="M79.9878 30.1774C79.9878 25.3211 82.948 21.2232 88.7951 21.2232C94.7523 21.2232 97.6025 25.1254 97.6025 30.1774C97.6025 35.2294 94.5811 39.1315 88.7951 39.1315C83.0092 39.1315 79.9878 35.0214 79.9878 30.1774ZM88.7829 37.2477C92.9419 37.2477 94.5811 33.3945 94.5811 30.1651C94.5811 26.9358 92.9664 23.0826 88.7829 23.0826C84.685 23.0826 82.9847 27.0092 82.9847 30.1651C82.9847 33.3333 84.6361 37.2477 88.7829 37.2477Z" fill="black"/>
<path d="M165.59 38.8257H176.538V36.7339H168.477V21.4923H165.59V38.8257Z" fill="black"/>
<path d="M202.226 29.2844H195.67V31.156H199.56V36.8318C198.495 37.1131 197.664 37.1988 196.502 37.1988C191.89 37.1988 189.272 34.1896 189.272 30.1651C189.272 26.1529 192.379 23.107 196.905 23.107C198.593 23.107 200.404 23.3639 201.884 24.0734L202.055 21.9939C200.416 21.3945 198.447 21.211 196.697 21.211C190.924 21.211 186.263 24.8685 186.263 30.1651C186.263 35.4618 190.581 39.1193 196.379 39.1193C198.508 39.1193 200.245 38.8012 202.214 38.1162V29.2844H202.226Z" fill="black"/>
<path d="M253.052 37.0887L246.814 21.4801H243.853L251.009 38.8257H255.119L262.275 21.4801H259.303L253.052 37.0887Z" fill="black"/>
<path d="M346.96 38.8257L339.878 29.9082L346.569 21.4923H343.18L338.19 27.841L333.199 21.4923H329.823L336.502 29.9082L329.419 38.8257H332.795L338.19 31.9878L343.584 38.8257H346.96Z" fill="black"/>
<path d="M263.119 30.1774C263.119 25.3211 266.08 21.2232 271.927 21.2232C277.884 21.2232 280.734 25.1254 280.734 30.1774C280.734 35.2294 277.713 39.1315 271.927 39.1315C266.141 39.1315 263.119 35.0214 263.119 30.1774ZM271.927 37.2477C276.086 37.2477 277.725 33.3945 277.725 30.1651C277.725 26.9358 276.11 23.0826 271.927 23.0826C267.829 23.0826 266.128 27.0092 266.128 30.1651C266.128 33.3333 267.768 37.2477 271.927 37.2477Z" fill="black"/>
<path d="M288.746 30.9969C290.789 31.0214 291.535 31.5107 292.135 32.9296C292.869 34.6789 294.618 38.8257 294.618 38.8257H297.81C297.81 38.8257 295.731 34.0306 295.046 32.6116C294.422 31.3272 293.749 30.6666 292.55 30.3364C294.924 29.6391 296.587 27.9755 296.587 25.8838C296.587 22.3975 293.505 21.4801 289.7 21.4801H284V38.8257H286.826V30.9847H288.746V30.9969ZM286.826 29.1988V23.2416H289.48C292 23.2416 293.688 24 293.688 26.0917C293.688 28.1835 292.024 29.1988 289.48 29.1988H286.826Z" fill="black"/>
<path d="M327.731 23.4006V21.4923H315.719V38.8257H327.731V36.9174H318.52V30.9358H327.376V29.0153H318.52V23.4006H327.731Z" fill="black"/>
<path d="M313.15 21.4923H298.422V23.4006H304.379V38.8257H307.193V23.4006H313.15V21.4923Z" fill="black"/>
<path d="M238.581 21.4923H223.853V23.4006H229.81V38.8257H232.624V23.4006H238.581V21.4923Z" fill="black"/>
<path d="M221.468 21.4923V38.8257H218.667V30.9358H209.529V38.8257H206.74V21.4923H209.529V29.0153H218.667V21.4923H221.468Z" fill="black"/>
<path d="M179.731 38.8257V21.4801H182.544V38.8257H179.731Z" fill="black"/>
<path d="M21.578 8.84406C33.4924 8.84406 43.156 18.5077 43.156 30.422C43.156 42.3364 33.4924 52 21.578 52C9.66361 52 0 42.3364 0 30.422C0 18.5077 9.66361 8.84406 21.578 8.84406Z" fill="url(#paint0_linear)"/>
<path d="M38.1039 44.3058C39.6819 42.422 40.9541 40.2691 41.8226 37.9205C38.8134 40.2813 35.0213 41.6881 30.899 41.6881C21.1131 41.6881 13.1743 33.7492 13.1743 23.9633C13.1743 17.578 16.5504 11.9755 21.6269 8.85626C21.6024 8.85626 21.5902 8.85626 21.5779 8.85626C19.058 8.85626 16.636 9.29663 14.3853 10.0917C11.2293 13.8471 9.32104 18.6911 9.32104 23.9755C9.32104 35.8899 18.9847 45.5535 30.9113 45.5535C33.4311 45.5413 35.8532 45.1009 38.1039 44.3058Z" fill="#B3B3B3"/>
<path d="M8.85632 21.578C8.85632 33.4924 18.5199 43.156 30.4343 43.156C42.3487 43.156 52.0123 33.4924 52.0123 21.578C52.0123 9.66361 42.3487 0 30.4343 0C18.5077 0 8.85632 9.66361 8.85632 21.578ZM49.4557 21.578C49.4557 32.0856 40.9297 40.6116 30.4221 40.6116C19.9144 40.6116 11.3884 32.0979 11.3884 21.578C11.3884 11.0703 19.9022 2.54434 30.4221 2.54434C40.942 2.54434 49.4557 11.0703 49.4557 21.578Z" fill="url(#paint1_linear)"/>
<path d="M10.8135 21.578C10.8135 32.4037 19.5964 41.1865 30.4343 41.1865C41.2722 41.1865 50.0428 32.4037 50.0428 21.578C50.0428 10.7523 41.26 1.96942 30.4343 1.96942C19.5964 1.96942 10.8135 10.7523 10.8135 21.578ZM48.159 21.578C48.159 31.3639 40.2202 39.3028 30.4343 39.3028C20.6483 39.3028 12.7095 31.3639 12.7095 21.578C12.7095 11.7921 20.6483 3.85321 30.4343 3.85321C40.2202 3.85321 48.159 11.7921 48.159 21.578Z" fill="url(#paint2_linear)"/>
<defs>
<linearGradient id="paint0_linear" x1="21.578" y1="52.0001" x2="21.578" y2="8.84418" gradientUnits="userSpaceOnUse">
<stop stop-color="#750006"/>
<stop offset="1" stop-color="#E10031"/>
</linearGradient>
<linearGradient id="paint1_linear" x1="30.4343" y1="43.1561" x2="30.4343" y2="0" gradientUnits="userSpaceOnUse">
<stop stop-color="#CCCCCC"/>
<stop offset="0.0879" stop-color="#A6A6A6"/>
<stop offset="0.4" stop-color="#262626"/>
<stop offset="0.5" stop-color="#E6E6E6"/>
<stop offset="1" stop-color="#BFBFBF"/>
</linearGradient>
<linearGradient id="paint2_linear" x1="30.4282" y1="41.1867" x2="30.4282" y2="1.96954" gradientUnits="userSpaceOnUse">
<stop stop-color="#404040"/>
<stop offset="0.2747" stop-color="#999999"/>
<stop offset="0.5" stop-color="#E6E6E6"/>
<stop offset="0.8626" stop-color="#999999"/>
<stop offset="1" stop-color="#262626"/>
</linearGradient>
</defs>
</svg>
